<svg clip-rule="evenodd" fill-rule="evenodd" stroke-linejoin="round" stroke-miterlimit="2" viewBox="0 0 1070 400" xmlns="http://www.w3.org/2000/svg"><path d="m314.269 399.855h-273.809c-22.33 0-40.46-18.129-40.46-40.459v-273.81c0-22.33 18.129-40.459 40.46-40.46h38.285c-.168-.815-.257-1.659-.257-2.524v-30.164c0-6.865 5.573-12.438 12.438-12.438h24.877c6.865 0 12.438 5.573 12.438 12.438v30.164c0 .865-.089 1.709-.257 2.524h99.555c-.168-.815-.257-1.659-.257-2.524v-30.164c0-6.865 5.574-12.438 12.439-12.438h24.876c6.865 0 12.438 5.573 12.438 12.438v30.164c0 .863-.088 1.706-.257 2.524h37.491c22.334.004 40.46 18.132 40.46 40.46v273.81c0 22.328-18.126 40.457-40.46 40.459z" fill="#e82d0c" transform="matrix(1.00036 0 0 1.00036 0 .00000001108)"/><path d="m31.20222876 125.71123977108h292.45224492v241.23881472h-292.45224492z" fill="#fff" stroke-width="1.00036"/><g fill="#e82d0c"><path d="m176.222 339.962c-2.034-.244-4.004-1.145-5.564-2.705l-66.333-66.334c-3.697-3.696-3.697-9.699 0-13.395l13.395-13.396c3.697-3.696 9.699-3.696 13.395 0l46.251 46.251 46.248-46.248c3.696-3.697 9.699-3.697 13.395 0l13.396 13.395c3.696 3.697 3.696 9.699 0 13.396l-66.334 66.333c-2.141 2.141-5.056 3.042-7.849 2.703zm0-86.518c-2.034-.243-4.004-1.145-5.564-2.705l-66.333-66.333c-3.697-3.697-3.697-9.699 0-13.396l13.395-13.395c3.697-3.696 9.699-3.696 13.395 0l46.251 46.25 46.248-46.248c3.696-3.696 9.699-3.696 13.395 0l13.396 13.396c3.696 3.696 3.696 9.699 0 13.395l-66.334 66.334c-2.141 2.141-5.056 3.042-7.849 2.702z" transform="matrix(1.00036 0 0 1.00036 0 .00000001108)"/><path d="m399.46723027768 45.37739959895h72.8635878383v247.73619865022h-72.8635878383z" stroke-width="346.96946589666"/><path d="m.846-.234c-.016.09-.048.129-.115.178-.067.049-.157.074-.27.074-.084 0-.157-.015-.218-.044s-.109-.072-.142-.129c-.034-.057-.051-.124-.051-.202 0-.074.016-.139.049-.196s.08-.101.142-.132c.061-.031.135-.047.221-.047.103 0 .186.021.248.063.061.042.102.105.123.19l-.21.024c-.013-.038-.032-.066-.057-.083-.026-.017-.061-.025-.105-.025-.061 0-.108.018-.142.054-.034.037-.051.087-.051.152s.017.116.052.152c.034.036.082.054.145.054.049 0 .087-.009.115-.028.027-.018.028-.017.054-.055z" fill-rule="nonzero" transform="matrix(346.96946589666 0 0 346.96946589666 488.29314839455 293.11359824916)"/><path d="m.543-.499c-.011-.028-.029-.048-.052-.061-.023-.012-.055-.018-.096-.018-.046 0-.081.005-.104.015-.024.01-.036.025-.036.044 0 .018.006.031.019.04s.037.016.074.022l.154.025c.093.015.16.039.201.074s.061.084.061.147c0 .075-.03.132-.091.171s-.15.058-.269.058-.209-.021-.271-.063c-.063-.042-.098-.104-.106-.189l.21.001c.007.034.023.057.05.073s.066.024.117.024c.048 0 .085-.006.111-.018s.039-.029.039-.051c0-.017-.007-.03-.021-.039-.015-.009-.04-.017-.075-.022l-.127-.019c-.098-.015-.17-.04-.215-.077s-.068-.087-.068-.151c0-.069.031-.122.094-.161s.149-.058.26-.058c.103 0 .182.018.239.053.056.035.09.089.103.16z" fill-rule="nonzero" transform="matrix(346.96946589666 0 0 346.96946589666 800.21696338832 293.11359824916)"/><path d="m.809-.241c-.013.083-.051.147-.114.192s-.146.067-.249.067c-.078 0-.146-.015-.204-.045-.059-.029-.104-.072-.137-.129s-.049-.124-.049-.201c0-.073.016-.138.047-.195s.076-.101.135-.133c.059-.031.128-.047.207-.047.191 0 .308.08.352.239l-.128.019c-.018-.053-.045-.092-.08-.116-.036-.024-.084-.036-.145-.036-.079 0-.142.024-.188.072s-.069.114-.069.197c0 .084.023.15.07.197.046.048.11.072.191.072.065 0 .116-.012.153-.037s.062-.063.075-.116z" fill-rule="nonzero" transform="matrix(104.84610202029 0 0 104.84610202029 393.2406801941 397.9144994929)"/><path d="m.69 0-.082-.179h-.377l-.083.179h-.133l.337-.714h.138l.337.714zm-.271-.593-.144.31h.286z" fill-rule="nonzero" transform="matrix(104.84610202029 0 0 104.84610202029 480.05330692479 397.9144994929)"/><path d="m.093 0v-.714h.127v.607h.453l-.018.107z" fill-rule="nonzero" transform="matrix(104.84610202029 0 0 104.84610202029 568.33443528972 397.9144994929)"/><path d="m.093 0v-.714h.582v.107h-.455v.186h.433v.107h-.433v.207h.477l-.018.107z" fill-rule="nonzero" transform="matrix(104.84610202029 0 0 104.84610202029 641.51574966193 397.9144994929)"/><path d="m.663 0-.447-.539v.539h-.123v-.714h.118l.447.539v-.539h.123v.714z" fill-rule="nonzero" transform="matrix(104.84610202029 0 0 104.84610202029 719.31291656048 397.9144994929)"/><path d="m.093 0v-.714h.31c.133 0 .234.031.305.092.07.061.105.15.105.265s-.037.203-.112.264c-.075.062-.181.093-.319.093zm.293-.107c.098 0 .172-.021.222-.064.049-.042.074-.104.074-.186 0-.167-.093-.25-.278-.25h-.184v.5z" fill-rule="nonzero" transform="matrix(104.84610202029 0 0 104.84610202029 810.94781170989 397.9144994929)"/><path d="m.69 0-.082-.179h-.377l-.083.179h-.133l.337-.714h.138l.337.714zm-.271-.593-.144.31h.286z" fill-rule="nonzero" transform="matrix(104.84610202029 0 0 104.84610202029 897.23555231429 397.9144994929)"/><path d="m.618 0-.161-.281c-.006.001-.012.001-.017.001h-.018-.207v.28h-.122v-.714h.341c.191 0 .287.072.287.217 0 .097-.047.161-.14.192l.18.305zm-.192-.383c.057 0 .1-.009.128-.028.027-.019.041-.048.041-.087 0-.04-.013-.069-.039-.087-.027-.017-.069-.026-.128-.026h-.213v.228z" fill-rule="nonzero" transform="matrix(104.84610202029 0 0 104.84610202029 985.51668067921 397.9144994929)"/></g></svg>