<?xml version="1.0" encoding="UTF-8" standalone="no"?>
<!DOCTYPE svg PUBLIC "-//W3C//DTD SVG 1.1//EN" "http://www.w3.org/Graphics/SVG/1.1/DTD/svg11.dtd">
<svg width="100%" height="100%" viewBox="0 0 1368 400" version="1.1" xmlns="http://www.w3.org/2000/svg" xmlns:xlink="http://www.w3.org/1999/xlink" xml:space="preserve" xmlns:serif="http://www.serif.com/" style="fill-rule:evenodd;clip-rule:evenodd;stroke-linejoin:round;stroke-miterlimit:2;">
    <g transform="matrix(1,0,0,1,0,-0.449337)">
        <g transform="matrix(0.363636,0,0,0.363636,-325.186,-165.47)">
            <g transform="matrix(-2.4857,0,-1.3256e-16,2.20702,4032.71,-1147.5)">
                <path d="M1049.38,972.706L900.531,822.504L900.531,1073.76L1049.38,1223.96L1049.38,972.706Z" style="fill:rgb(105,206,249);"/>
            </g>
            <g transform="matrix(2.4857,0,1.3256e-16,2.20702,-1344.19,-1147.5)">
                <path d="M1081.57,918.334L900.531,822.504L900.531,1073.76L1081.57,1169.59L1081.57,918.334Z" style="fill:rgb(42,49,56);"/>
            </g>
            <g transform="matrix(1.50655,0,0,1.11609,-452.987,-52.971)">
                <path d="M1192.96,456.279L1491.65,645.779L1192.96,835.279L894.262,645.779L1192.96,456.279Z" style="fill:rgb(222,57,11);"/>
            </g>
        </g>
        <g transform="matrix(1,0,0,1,25,0)">
            <g transform="matrix(1.06593,0,0,1.06593,-56.9492,18.6857)">
                <g transform="matrix(266.667,0,0,266.667,385.956,183.538)">
                    <path d="M0.054,0L0.234,0C0.245,0 0.253,-0.008 0.253,-0.019L0.253,-0.248C0.253,-0.248 0.262,-0.272 0.304,-0.272C0.331,-0.272 0.346,-0.263 0.358,-0.256C0.367,-0.25 0.375,-0.245 0.384,-0.245C0.396,-0.245 0.403,-0.254 0.403,-0.265L0.403,-0.447C0.403,-0.469 0.372,-0.483 0.344,-0.483C0.287,-0.483 0.247,-0.462 0.219,-0.415C0.213,-0.462 0.175,-0.48 0.128,-0.48L0.054,-0.48C0.043,-0.48 0.035,-0.472 0.035,-0.461L0.035,-0.019C0.035,-0.008 0.043,0 0.054,0Z" style="fill:rgb(105,206,249);fill-rule:nonzero;"/>
                </g>
                <g transform="matrix(266.667,0,0,266.667,496.623,183.538)">
                    <path d="M0.267,0.01C0.414,0.01 0.522,-0.072 0.522,-0.24C0.522,-0.408 0.414,-0.49 0.267,-0.49C0.12,-0.49 0.012,-0.408 0.012,-0.24C0.012,-0.072 0.12,0.01 0.267,0.01ZM0.267,-0.14C0.245,-0.14 0.243,-0.155 0.243,-0.24C0.243,-0.325 0.245,-0.34 0.267,-0.34C0.289,-0.34 0.291,-0.325 0.291,-0.24C0.291,-0.155 0.289,-0.14 0.267,-0.14Z" style="fill:rgb(105,206,249);fill-rule:nonzero;"/>
                </g>
                <g transform="matrix(266.667,0,0,266.667,641.689,183.538)">
                    <path d="M0.267,0.01C0.414,0.01 0.522,-0.072 0.522,-0.24C0.522,-0.408 0.414,-0.49 0.267,-0.49C0.12,-0.49 0.012,-0.408 0.012,-0.24C0.012,-0.072 0.12,0.01 0.267,0.01ZM0.267,-0.14C0.245,-0.14 0.243,-0.155 0.243,-0.24C0.243,-0.325 0.245,-0.34 0.267,-0.34C0.289,-0.34 0.291,-0.325 0.291,-0.24C0.291,-0.155 0.289,-0.14 0.267,-0.14Z" style="fill:rgb(105,206,249);fill-rule:nonzero;"/>
                </g>
                <g transform="matrix(266.667,0,0,266.667,784.089,183.538)">
                    <path d="M0.519,-0.019L0.519,-0.322C0.529,-0.326 0.538,-0.328 0.546,-0.328C0.557,-0.328 0.567,-0.324 0.567,-0.303L0.567,-0.019C0.567,-0.008 0.575,0 0.586,0L0.766,0C0.777,0 0.785,-0.008 0.785,-0.019L0.785,-0.33C0.785,-0.415 0.75,-0.486 0.646,-0.486C0.591,-0.486 0.538,-0.463 0.503,-0.414C0.484,-0.457 0.446,-0.486 0.38,-0.486C0.318,-0.486 0.27,-0.453 0.25,-0.43C0.238,-0.466 0.204,-0.48 0.162,-0.48L0.054,-0.48C0.043,-0.48 0.035,-0.472 0.035,-0.461L0.035,-0.019C0.035,-0.008 0.043,0 0.054,0L0.234,0C0.245,0 0.253,-0.008 0.253,-0.019L0.253,-0.322C0.263,-0.326 0.272,-0.328 0.28,-0.328C0.291,-0.328 0.301,-0.324 0.301,-0.303L0.301,-0.019C0.301,-0.008 0.309,0 0.32,0L0.5,0C0.511,0 0.519,-0.008 0.519,-0.019Z" style="fill:rgb(105,206,249);fill-rule:nonzero;"/>
                </g>
                <g transform="matrix(266.667,0,0,266.667,1004.09,183.538)">
                    <path d="M0.226,-0.432C0.226,-0.406 0.21,-0.396 0.162,-0.396L0.141,-0.396C0.13,-0.396 0.122,-0.388 0.122,-0.377L0.122,-0.275C0.122,-0.264 0.13,-0.256 0.141,-0.256L0.169,-0.256C0.21,-0.256 0.236,-0.25 0.236,-0.22C0.236,-0.187 0.214,-0.18 0.187,-0.18C0.151,-0.18 0.112,-0.2 0.072,-0.228C0.058,-0.238 0.047,-0.246 0.034,-0.246C0.02,-0.246 0.011,-0.236 0.011,-0.214L0.011,-0.096C0.011,-0.069 0.017,-0.058 0.042,-0.04C0.067,-0.022 0.132,0.01 0.228,0.01C0.346,0.01 0.461,-0.046 0.461,-0.183C0.461,-0.249 0.421,-0.307 0.382,-0.33C0.421,-0.354 0.451,-0.406 0.451,-0.464C0.451,-0.567 0.387,-0.651 0.229,-0.651C0.148,-0.651 0.083,-0.626 0.053,-0.608C0.031,-0.595 0.023,-0.585 0.023,-0.558L0.023,-0.437C0.023,-0.415 0.032,-0.405 0.046,-0.405C0.058,-0.405 0.069,-0.414 0.082,-0.423C0.106,-0.44 0.14,-0.466 0.178,-0.466C0.198,-0.466 0.226,-0.465 0.226,-0.432Z" style="fill:rgb(222,57,11);fill-rule:nonzero;"/>
                </g>
                <g transform="matrix(266.667,0,0,266.667,1131.29,183.538)">
                    <path d="M0.293,-0.287L0.248,-0.287L0.39,-0.583C0.398,-0.599 0.404,-0.614 0.404,-0.623C0.404,-0.633 0.396,-0.641 0.386,-0.641L0.196,-0.641C0.184,-0.641 0.177,-0.634 0.173,-0.624L0.024,-0.28C0.018,-0.266 0.013,-0.246 0.013,-0.234L0.013,-0.159C0.013,-0.149 0.02,-0.141 0.031,-0.141L0.238,-0.141L0.238,-0.019C0.238,-0.008 0.246,0 0.257,0L0.447,0C0.458,0 0.466,-0.008 0.466,-0.019L0.466,-0.141L0.508,-0.141C0.519,-0.141 0.527,-0.149 0.527,-0.16L0.527,-0.268C0.527,-0.279 0.519,-0.287 0.508,-0.287L0.466,-0.287L0.466,-0.369C0.466,-0.38 0.458,-0.388 0.447,-0.388L0.356,-0.388C0.345,-0.388 0.338,-0.38 0.333,-0.37L0.293,-0.287Z" style="fill:rgb(222,57,11);fill-rule:nonzero;"/>
                </g>
            </g>
            <g transform="matrix(1.89931,0,0,1.89931,-509.844,-350.128)">
                <g transform="matrix(32,0,0,32,458.408,330.99)">
                    <path d="M0.325,0.012C0.499,0.012 0.59,-0.074 0.59,-0.211L0.59,-0.258L0.499,-0.258L0.499,-0.218C0.499,-0.124 0.446,-0.072 0.324,-0.072C0.201,-0.072 0.147,-0.124 0.147,-0.218L0.147,-0.488C0.147,-0.582 0.201,-0.634 0.325,-0.634C0.446,-0.634 0.499,-0.582 0.499,-0.488L0.499,-0.448L0.59,-0.448L0.59,-0.495C0.59,-0.632 0.498,-0.718 0.324,-0.718C0.15,-0.718 0.059,-0.632 0.059,-0.495L0.059,-0.211C0.059,-0.074 0.151,0.012 0.325,0.012Z" style="fill:rgb(42,49,56);fill-rule:nonzero;"/>
                </g>
                <g transform="matrix(32,0,0,32,491.976,330.99)">
                    <path d="M0.578,0L0.448,-0.307C0.525,-0.333 0.568,-0.393 0.568,-0.479L0.568,-0.52C0.568,-0.636 0.49,-0.705 0.352,-0.705L0.076,-0.705L0.076,0L0.164,0L0.164,-0.293L0.358,-0.293L0.486,0L0.578,0ZM0.164,-0.622L0.358,-0.622C0.441,-0.622 0.481,-0.587 0.481,-0.52L0.481,-0.479C0.481,-0.411 0.441,-0.377 0.357,-0.377L0.164,-0.377L0.164,-0.622Z" style="fill:rgb(42,49,56);fill-rule:nonzero;"/>
                </g>
                <g transform="matrix(32,0,0,32,524.712,330.99)">
                    <path d="M0.507,-0.622L0.507,-0.705L0.076,-0.705L0.076,0L0.507,0L0.507,-0.084L0.164,-0.084L0.164,-0.305L0.462,-0.305L0.462,-0.389L0.164,-0.389L0.164,-0.622L0.507,-0.622Z" style="fill:rgb(42,49,56);fill-rule:nonzero;"/>
                </g>
                <g transform="matrix(32,0,0,32,555.432,330.99)">
                    <path d="M0.507,0L0.594,0L0.368,-0.705L0.247,-0.705L0.022,0L0.108,0L0.17,-0.184L0.444,-0.184L0.507,0ZM0.307,-0.613L0.417,-0.268L0.198,-0.268L0.307,-0.613Z" style="fill:rgb(42,49,56);fill-rule:nonzero;"/>
                </g>
                <g transform="matrix(32,0,0,32,586.12,330.99)">
                    <path d="M0.542,-0.705L0.012,-0.705L0.012,-0.622L0.233,-0.622L0.233,0L0.321,0L0.321,-0.622L0.542,-0.622L0.542,-0.705Z" style="fill:rgb(42,49,56);fill-rule:nonzero;"/>
                </g>
                <g transform="matrix(32,0,0,32,616.68,330.99)">
                    <rect x="0.076" y="-0.705" width="0.088" height="0.705" style="fill:rgb(42,49,56);fill-rule:nonzero;"/>
                </g>
                <g transform="matrix(32,0,0,32,637.16,330.99)">
                    <path d="M0.487,-0.706L0.299,-0.113L0.111,-0.706L0.022,-0.706L0.238,-0.001L0.36,-0.001L0.576,-0.706L0.487,-0.706Z" style="fill:rgb(42,49,56);fill-rule:nonzero;"/>
                </g>
                <g transform="matrix(32,0,0,32,669.096,330.99)">
                    <path d="M0.507,-0.622L0.507,-0.705L0.076,-0.705L0.076,0L0.507,0L0.507,-0.084L0.164,-0.084L0.164,-0.305L0.462,-0.305L0.462,-0.389L0.164,-0.389L0.164,-0.622L0.507,-0.622Z" style="fill:rgb(42,49,56);fill-rule:nonzero;"/>
                </g>
                <g transform="matrix(32,0,0,32,720.296,330.99)">
                    <path d="M0.311,0.013C0.481,0.013 0.569,-0.078 0.568,-0.196C0.567,-0.454 0.153,-0.367 0.153,-0.527C0.153,-0.592 0.208,-0.634 0.305,-0.634C0.407,-0.634 0.466,-0.586 0.466,-0.518L0.466,-0.484L0.553,-0.484L0.553,-0.515C0.553,-0.634 0.471,-0.718 0.305,-0.718C0.139,-0.718 0.065,-0.632 0.065,-0.525C0.065,-0.276 0.48,-0.376 0.48,-0.192C0.48,-0.116 0.414,-0.07 0.313,-0.07C0.205,-0.07 0.137,-0.121 0.137,-0.196L0.137,-0.228L0.049,-0.228L0.049,-0.201C0.049,-0.076 0.143,0.013 0.311,0.013Z" style="fill:rgb(42,49,56);fill-rule:nonzero;"/>
                </g>
                <g transform="matrix(32,0,0,32,752.872,330.99)">
                    <path d="M0.507,-0.622L0.507,-0.705L0.076,-0.705L0.076,0L0.507,0L0.507,-0.084L0.164,-0.084L0.164,-0.305L0.462,-0.305L0.462,-0.389L0.164,-0.389L0.164,-0.622L0.507,-0.622Z" style="fill:rgb(42,49,56);fill-rule:nonzero;"/>
                </g>
                <g transform="matrix(32,0,0,32,783.592,330.99)">
                    <path d="M0.578,0L0.448,-0.307C0.525,-0.333 0.568,-0.393 0.568,-0.479L0.568,-0.52C0.568,-0.636 0.49,-0.705 0.352,-0.705L0.076,-0.705L0.076,0L0.164,0L0.164,-0.293L0.358,-0.293L0.486,0L0.578,0ZM0.164,-0.622L0.358,-0.622C0.441,-0.622 0.481,-0.587 0.481,-0.52L0.481,-0.479C0.481,-0.411 0.441,-0.377 0.357,-0.377L0.164,-0.377L0.164,-0.622Z" style="fill:rgb(42,49,56);fill-rule:nonzero;"/>
                </g>
                <g transform="matrix(32,0,0,32,816.232,330.99)">
                    <path d="M0.487,-0.706L0.299,-0.113L0.111,-0.706L0.022,-0.706L0.238,-0.001L0.36,-0.001L0.576,-0.706L0.487,-0.706Z" style="fill:rgb(42,49,56);fill-rule:nonzero;"/>
                </g>
                <g transform="matrix(32,0,0,32,848.168,330.99)">
                    <rect x="0.076" y="-0.705" width="0.088" height="0.705" style="fill:rgb(42,49,56);fill-rule:nonzero;"/>
                </g>
                <g transform="matrix(32,0,0,32,868.648,330.99)">
                    <path d="M0.325,0.012C0.499,0.012 0.59,-0.074 0.59,-0.211L0.59,-0.258L0.499,-0.258L0.499,-0.218C0.499,-0.124 0.446,-0.072 0.324,-0.072C0.201,-0.072 0.147,-0.124 0.147,-0.218L0.147,-0.488C0.147,-0.582 0.201,-0.634 0.325,-0.634C0.446,-0.634 0.499,-0.582 0.499,-0.488L0.499,-0.448L0.59,-0.448L0.59,-0.495C0.59,-0.632 0.498,-0.718 0.324,-0.718C0.15,-0.718 0.059,-0.632 0.059,-0.495L0.059,-0.211C0.059,-0.074 0.151,0.012 0.325,0.012Z" style="fill:rgb(42,49,56);fill-rule:nonzero;"/>
                </g>
                <g transform="matrix(32,0,0,32,902.216,330.99)">
                    <path d="M0.507,-0.622L0.507,-0.705L0.076,-0.705L0.076,0L0.507,0L0.507,-0.084L0.164,-0.084L0.164,-0.305L0.462,-0.305L0.462,-0.389L0.164,-0.389L0.164,-0.622L0.507,-0.622Z" style="fill:rgb(42,49,56);fill-rule:nonzero;"/>
                </g>
                <g transform="matrix(32,0,0,32,932.936,330.99)">
                    <path d="M0.311,0.013C0.481,0.013 0.569,-0.078 0.568,-0.196C0.567,-0.454 0.153,-0.367 0.153,-0.527C0.153,-0.592 0.208,-0.634 0.305,-0.634C0.407,-0.634 0.466,-0.586 0.466,-0.518L0.466,-0.484L0.553,-0.484L0.553,-0.515C0.553,-0.634 0.471,-0.718 0.305,-0.718C0.139,-0.718 0.065,-0.632 0.065,-0.525C0.065,-0.276 0.48,-0.376 0.48,-0.192C0.48,-0.116 0.414,-0.07 0.313,-0.07C0.205,-0.07 0.137,-0.121 0.137,-0.196L0.137,-0.228L0.049,-0.228L0.049,-0.201C0.049,-0.076 0.143,0.013 0.311,0.013Z" style="fill:rgb(42,49,56);fill-rule:nonzero;"/>
                </g>
            </g>
        </g>
    </g>
</svg>
